<svg id="telephone" version="1.1" viewBox="0 0 348.08 348.08" xml:space="preserve" xmlns="http://www.w3.org/2000/svg"><path d="M340.27 275.08l-53.755-53.761c-10.707-10.664-28.438-10.34-39.518.744l-27.082 27.076a792.327 792.327 0 01-5.344-2.973c-17.102-9.476-40.509-22.464-65.14-47.113-24.704-24.701-37.704-48.144-47.209-65.257-1.003-1.813-1.964-3.561-2.913-5.221l18.176-18.149 8.936-8.947c11.097-11.1 11.403-28.826.721-39.521L73.387 8.191c-10.682-10.68-28.421-10.356-39.518.744l-15.15 15.237.414.411c-5.08 6.482-9.325 13.958-12.484 22.02C3.737 54.277 1.924 61.6 1.095 68.938c-7.098 58.844 19.792 112.62 92.768 185.6 100.88 100.87 182.17 93.248 185.67 92.876 7.638-.913 14.958-2.738 22.397-5.627 7.992-3.122 15.463-7.361 21.941-12.43l.331.294 15.348-15.029c11.074-11.098 11.393-28.83.716-39.542z"/></svg>